<mxfile host="app.diagrams.net" modified="2023-11-24T11:12:37.542Z" agent="Mozilla/5.0 (Windows NT 10.0; Win64; x64) AppleWebKit/537.36 (KHTML, like Gecko) Chrome/119.0.0.0 Safari/537.36" etag="UmNcwWcikvh29kb4oveK" version="22.1.3" type="device">
  <diagram name="Page-1" id="WInYcYEMa4ZJupcjUs8Z">
    <mxGraphModel dx="3354" dy="1095" grid="1" gridSize="10" guides="1" tooltips="1" connect="1" arrows="1" fold="1" page="1" pageScale="1" pageWidth="1169" pageHeight="827" math="0" shadow="0">
      <root>
        <mxCell id="0" />
        <mxCell id="1" parent="0" />
        <mxCell id="ffbRzwbuRvtnXd_I9SY2-1" value="&lt;font style=&quot;font-size: 25px;&quot;&gt;Student&lt;/font&gt;" style="swimlane;childLayout=stackLayout;horizontal=1;startSize=80;horizontalStack=0;rounded=1;fontSize=14;fontStyle=0;strokeWidth=2;resizeParent=0;resizeLast=1;shadow=0;dashed=0;align=center;arcSize=4;whiteSpace=wrap;html=1;" parent="1" vertex="1">
          <mxGeometry x="-20" y="41" width="440" height="300" as="geometry" />
        </mxCell>
        <mxCell id="ffbRzwbuRvtnXd_I9SY2-2" value="&lt;font style=&quot;font-size: 25px;&quot;&gt;+Id (PK)&lt;br style=&quot;border-color: var(--border-color);&quot;&gt;+First Name - text&lt;br&gt;+Last Name - text&lt;br&gt;+Date Of Birth - date&lt;br&gt;+Student Id - text&lt;br&gt;+Programme of Study Id(FK) - int&lt;br style=&quot;border-color: var(--border-color);&quot;&gt;&lt;/font&gt;" style="align=left;strokeColor=none;fillColor=none;spacingLeft=4;fontSize=12;verticalAlign=top;resizable=0;rotatable=0;part=1;html=1;" parent="ffbRzwbuRvtnXd_I9SY2-1" vertex="1">
          <mxGeometry y="80" width="440" height="220" as="geometry" />
        </mxCell>
        <mxCell id="ffbRzwbuRvtnXd_I9SY2-7" value="&lt;font style=&quot;font-size: 25px;&quot;&gt;Lecturer&lt;/font&gt;" style="swimlane;childLayout=stackLayout;horizontal=1;startSize=80;horizontalStack=0;rounded=1;fontSize=14;fontStyle=0;strokeWidth=2;resizeParent=0;resizeLast=1;shadow=0;dashed=0;align=center;arcSize=4;whiteSpace=wrap;html=1;" parent="1" vertex="1">
          <mxGeometry x="1380" y="110" width="260" height="250" as="geometry" />
        </mxCell>
        <mxCell id="ffbRzwbuRvtnXd_I9SY2-8" value="&lt;font style=&quot;font-size: 25px;&quot;&gt;+Id (PK)&lt;br style=&quot;border-color: var(--border-color);&quot;&gt;+First Name - text&lt;br&gt;+Last Name - text&lt;br&gt;+Date Of Birth - date&lt;br&gt;+Staff Id - text&lt;br style=&quot;border-color: var(--border-color);&quot;&gt;&lt;/font&gt;" style="align=left;strokeColor=none;fillColor=none;spacingLeft=4;fontSize=12;verticalAlign=top;resizable=0;rotatable=0;part=1;html=1;" parent="ffbRzwbuRvtnXd_I9SY2-7" vertex="1">
          <mxGeometry y="80" width="260" height="170" as="geometry" />
        </mxCell>
        <mxCell id="cL4DZUHHpJNjcYrOo24w-9" style="edgeStyle=orthogonalEdgeStyle;rounded=0;orthogonalLoop=1;jettySize=auto;html=1;exitX=0.5;exitY=0;exitDx=0;exitDy=0;entryX=0.5;entryY=1;entryDx=0;entryDy=0;" edge="1" parent="1" source="ffbRzwbuRvtnXd_I9SY2-10" target="cL4DZUHHpJNjcYrOo24w-6">
          <mxGeometry relative="1" as="geometry" />
        </mxCell>
        <mxCell id="ffbRzwbuRvtnXd_I9SY2-10" value="&lt;font style=&quot;font-size: 25px;&quot;&gt;Course&lt;/font&gt;" style="swimlane;childLayout=stackLayout;horizontal=1;startSize=70;horizontalStack=0;rounded=1;fontSize=14;fontStyle=0;strokeWidth=2;resizeParent=0;resizeLast=1;shadow=0;dashed=0;align=center;arcSize=4;whiteSpace=wrap;html=1;" parent="1" vertex="1">
          <mxGeometry x="850" y="550" width="440" height="240" as="geometry" />
        </mxCell>
        <mxCell id="ffbRzwbuRvtnXd_I9SY2-11" value="&lt;font style=&quot;font-size: 25px;&quot;&gt;+Id (PK)&lt;br style=&quot;border-color: var(--border-color);&quot;&gt;+Name - text&lt;br&gt;+Code - text&lt;br&gt;+Credits - number&lt;br&gt;+Programme of Study Id(FK) - int&lt;br style=&quot;border-color: var(--border-color);&quot;&gt;&lt;/font&gt;" style="align=left;strokeColor=none;fillColor=none;spacingLeft=4;fontSize=12;verticalAlign=top;resizable=0;rotatable=0;part=1;html=1;" parent="ffbRzwbuRvtnXd_I9SY2-10" vertex="1">
          <mxGeometry y="70" width="440" height="170" as="geometry" />
        </mxCell>
        <mxCell id="cL4DZUHHpJNjcYrOo24w-1" value="&lt;span style=&quot;font-size: 25px;&quot;&gt;ProgrammeOfStudy&lt;/span&gt;" style="swimlane;childLayout=stackLayout;horizontal=1;startSize=70;horizontalStack=0;rounded=1;fontSize=14;fontStyle=0;strokeWidth=2;resizeParent=0;resizeLast=1;shadow=0;dashed=0;align=center;arcSize=4;whiteSpace=wrap;html=1;" vertex="1" parent="1">
          <mxGeometry x="-20" y="594" width="269" height="196" as="geometry" />
        </mxCell>
        <mxCell id="cL4DZUHHpJNjcYrOo24w-2" value="&lt;font style=&quot;font-size: 25px;&quot;&gt;+Id (PK)&lt;br style=&quot;border-color: var(--border-color);&quot;&gt;+Name - text&lt;br&gt;+Duration - Years&lt;br style=&quot;border-color: var(--border-color);&quot;&gt;&lt;/font&gt;" style="align=left;strokeColor=none;fillColor=none;spacingLeft=4;fontSize=12;verticalAlign=top;resizable=0;rotatable=0;part=1;html=1;" vertex="1" parent="cL4DZUHHpJNjcYrOo24w-1">
          <mxGeometry y="70" width="269" height="126" as="geometry" />
        </mxCell>
        <mxCell id="cL4DZUHHpJNjcYrOo24w-3" style="edgeStyle=orthogonalEdgeStyle;rounded=0;orthogonalLoop=1;jettySize=auto;html=1;exitX=0;exitY=0.25;exitDx=0;exitDy=0;entryX=0.432;entryY=0.995;entryDx=0;entryDy=0;entryPerimeter=0;" edge="1" parent="1" source="cL4DZUHHpJNjcYrOo24w-2" target="ffbRzwbuRvtnXd_I9SY2-2">
          <mxGeometry relative="1" as="geometry" />
        </mxCell>
        <mxCell id="cL4DZUHHpJNjcYrOo24w-4" style="edgeStyle=orthogonalEdgeStyle;rounded=0;orthogonalLoop=1;jettySize=auto;html=1;exitX=1;exitY=0.25;exitDx=0;exitDy=0;entryX=0;entryY=0.824;entryDx=0;entryDy=0;entryPerimeter=0;" edge="1" parent="1" source="cL4DZUHHpJNjcYrOo24w-2" target="ffbRzwbuRvtnXd_I9SY2-11">
          <mxGeometry relative="1" as="geometry" />
        </mxCell>
        <mxCell id="cL4DZUHHpJNjcYrOo24w-5" value="&lt;font style=&quot;font-size: 25px;&quot;&gt;Class&lt;/font&gt;" style="swimlane;childLayout=stackLayout;horizontal=1;startSize=80;horizontalStack=0;rounded=1;fontSize=14;fontStyle=0;strokeWidth=2;resizeParent=0;resizeLast=1;shadow=0;dashed=0;align=center;arcSize=4;whiteSpace=wrap;html=1;" vertex="1" parent="1">
          <mxGeometry x="920" y="130" width="300" height="230" as="geometry" />
        </mxCell>
        <mxCell id="cL4DZUHHpJNjcYrOo24w-6" value="&lt;font style=&quot;font-size: 25px;&quot;&gt;+Id (PK)&lt;br style=&quot;border-color: var(--border-color);&quot;&gt;+Lecture Id(FK)&lt;br&gt;+Course Id(FK)&lt;br&gt;+Time - text&lt;br&gt;&lt;br style=&quot;border-color: var(--border-color);&quot;&gt;&lt;/font&gt;" style="align=left;strokeColor=none;fillColor=none;spacingLeft=4;fontSize=12;verticalAlign=top;resizable=0;rotatable=0;part=1;html=1;" vertex="1" parent="cL4DZUHHpJNjcYrOo24w-5">
          <mxGeometry y="80" width="300" height="150" as="geometry" />
        </mxCell>
        <mxCell id="cL4DZUHHpJNjcYrOo24w-7" style="edgeStyle=orthogonalEdgeStyle;rounded=0;orthogonalLoop=1;jettySize=auto;html=1;exitX=0;exitY=0.25;exitDx=0;exitDy=0;entryX=1;entryY=0.25;entryDx=0;entryDy=0;" edge="1" parent="1" source="ffbRzwbuRvtnXd_I9SY2-8" target="cL4DZUHHpJNjcYrOo24w-6">
          <mxGeometry relative="1" as="geometry" />
        </mxCell>
        <mxCell id="cL4DZUHHpJNjcYrOo24w-10" value="&lt;font style=&quot;font-size: 25px;&quot;&gt;Enrollment&lt;/font&gt;" style="swimlane;childLayout=stackLayout;horizontal=1;startSize=80;horizontalStack=0;rounded=1;fontSize=14;fontStyle=0;strokeWidth=2;resizeParent=0;resizeLast=1;shadow=0;dashed=0;align=center;arcSize=4;whiteSpace=wrap;html=1;" vertex="1" parent="1">
          <mxGeometry x="460" y="310" width="300" height="226" as="geometry" />
        </mxCell>
        <mxCell id="cL4DZUHHpJNjcYrOo24w-11" value="&lt;font style=&quot;font-size: 25px;&quot;&gt;+Id (PK)&lt;br style=&quot;border-color: var(--border-color);&quot;&gt;+Lecture Id(FK)&lt;br&gt;+Course Id(FK)&lt;br&gt;+Grade - varchar(2)&lt;br&gt;&lt;br style=&quot;border-color: var(--border-color);&quot;&gt;&lt;/font&gt;" style="align=left;strokeColor=none;fillColor=none;spacingLeft=4;fontSize=12;verticalAlign=top;resizable=0;rotatable=0;part=1;html=1;" vertex="1" parent="cL4DZUHHpJNjcYrOo24w-10">
          <mxGeometry y="80" width="300" height="146" as="geometry" />
        </mxCell>
        <mxCell id="cL4DZUHHpJNjcYrOo24w-12" style="edgeStyle=orthogonalEdgeStyle;rounded=0;orthogonalLoop=1;jettySize=auto;html=1;" edge="1" parent="cL4DZUHHpJNjcYrOo24w-10" source="cL4DZUHHpJNjcYrOo24w-11" target="cL4DZUHHpJNjcYrOo24w-11">
          <mxGeometry relative="1" as="geometry" />
        </mxCell>
        <mxCell id="cL4DZUHHpJNjcYrOo24w-13" style="edgeStyle=orthogonalEdgeStyle;rounded=0;orthogonalLoop=1;jettySize=auto;html=1;exitX=1;exitY=0.25;exitDx=0;exitDy=0;entryX=0;entryY=0.25;entryDx=0;entryDy=0;" edge="1" parent="1" source="ffbRzwbuRvtnXd_I9SY2-2" target="cL4DZUHHpJNjcYrOo24w-11">
          <mxGeometry relative="1" as="geometry" />
        </mxCell>
        <mxCell id="cL4DZUHHpJNjcYrOo24w-14" style="edgeStyle=orthogonalEdgeStyle;rounded=0;orthogonalLoop=1;jettySize=auto;html=1;exitX=1;exitY=0.25;exitDx=0;exitDy=0;entryX=0.003;entryY=0.38;entryDx=0;entryDy=0;entryPerimeter=0;" edge="1" parent="1" source="cL4DZUHHpJNjcYrOo24w-11" target="cL4DZUHHpJNjcYrOo24w-6">
          <mxGeometry relative="1" as="geometry" />
        </mxCell>
      </root>
    </mxGraphModel>
  </diagram>
</mxfile>
